[center] [img]http://img138.imageshack.us/img138/1606/thenextthreedaysposter5.jpg[/img]



[img]http://leetleech.org/images/48874973695367351744.png[/img]


Format                           : AVI
Format/Info                      : Audio Video Interleave
Format profile                   : OpenDML
File size                        : 2.07 GiB
Duration                         : 2h 12mn
Overall bit rate                 : 2 234 Kbps
Writing application              : VirtualDubMod 1.5.10.2 (build 2542/release)
Writing library                  : VirtualDub build 32839/release

Video
ID                               : 0
Format                           : MPEG-4 Visual
Format profile                   : Advanced Simple@L5
Format settings, BVOP            : Yes
Format settings, QPel            : No
Format settings, GMC             : No warppoints
Format settings, Matrix          : Custom
Codec ID                         : XVID
Codec ID/Hint                    : XviD
Duration                         : 2h 12mn
Bit rate                         : 1 774 Kbps
Width                            : 720 pixels
Height                           : 304 pixels
Display aspect ratio             : 2.35:1
Frame rate                       : 23.976 fps
Color space                      : YUV
Chroma subsampling               : 4:2:0
Bit depth                        : 8 bits
Scan type                        : Progressive
Bits/(Pixel*Frame)               : 0.338
Stream size                      : 1.64 GiB (79%)
Writing library                  : XviD 1.2.1 (UTC 2008-12-04)

Audio
ID                               : 1
Format                           : AC-3
Format/Info                      : Audio Coding 3
Mode extension                   : CM (complete main)
Codec ID                         : 2000
Duration                         : 2h 12mn
Bit rate mode                    : Constant
Bit rate                         : 448 Kbps
Channel(s)                       : 6 channels
Channel positions                : Front: L C R, Side: L R, LFE
Sampling rate                    : 48.0 KHz
Bit depth                        : 16 bits
Stream size                      : 424 MiB (20%)
Alignment                        : Split accross interleaves
Interleave, duration             : 42 ms (1.00 video frame)
Interleave, preload duration     : 500 ms




[url]http://www.imdb.com/title/tt1458175/[/url]




[IMG]http://leetleech.org/images/89524873606771859129.png[/IMG]


Storyline

Lara Brennan is arrested for murdering her boss whom she had an argument with. It seems she was seen leaving the scene of the crime and her fingerprints were on the murder weapon. Her husband, John would spend the next few years trying to get her released but there's no evidence that negates the evidence against her. And when the strain of being separated from her family especially her son gets to her, John decides to break her out. So he does a lot of research to find a way


Users: 7.3/10 (7,543 votes) 69 reviews | Critics: 144 reviews Metascore: 52/100 (based on 35 reviews from Metacritic.com)


Director:
Paul Haggis
Writers:
Paul Haggis (screenplay), Fred Cavayé (screenplay), and 1 more credit »
Stars:
Russell Crowe, Elizabeth Banks and Liam Neeson




[img]http://leetleech.org/images/95521316153253938506.png[/img]




[img]http://img203.imageshack.us/img203/2355/vlcsnap2011022316h05m27.png[/img]

[img]http://img525.imageshack.us/img525/6474/vlcsnap2011022316h06m28.png[/img]

[img]http://img708.imageshack.us/img708/2850/vlcsnap2011022316h06m03.png[/img]

[img]http://img543.imageshack.us/img543/5139/vlcsnap2011022316h05m17.png[/img]



The Next Three Days 720p BluRay x264-TWiZTED - Thanks 






Greetz to Imagine ,Flawl3ss ,Santi ,Vision ,Kingdom, BDK, TOXiC, iNK, THC, Ez, Rx,





[img]http://img411.imageshack.us/img411/6898/sig1n.jpg[/img]









Enjoy ![/center]